<svg width="684" height="651" viewBox="0 0 684 651" fill="none" xmlns="http://www.w3.org/2000/svg">
<path fill-rule="evenodd" clip-rule="evenodd" d="M331.09 0.395733C329.658 0.773299 318.813 4.22347 307.004 8.07725C295.196 11.9441 249.783 27.0858 206.103 41.7458C162.422 56.4188 100.319 77.276 68.096 88.1213C35.8727 98.9536 7.89369 108.809 5.92774 110.007C3.96179 111.218 1.67036 113.952 0.837109 116.1C-0.152375 118.652 -0.269551 121.113 0.51162 123.209C1.1626 124.967 4.03991 127.974 6.90421 129.888C9.7685 131.802 16.2132 134.861 21.2257 136.684C26.2382 138.52 39.1275 143.506 49.8686 147.764L69.3979 155.51C70.0229 219.684 69.8797 222.248 67.7705 222.808C66.5206 223.134 63.8777 224.592 61.9117 226.063C59.9458 227.521 57.1596 231.063 55.7274 233.927C54.2172 236.961 53.1235 241.726 53.1366 245.319C53.1366 248.717 53.9047 252.975 54.8551 254.758C55.7925 256.555 57.407 259.328 58.4225 260.943C60.0499 263.494 59.9848 265.903 57.9928 279.821C56.7299 288.596 53.3579 312.474 50.4936 332.875C47.6423 353.277 45.1556 373.6 44.9733 378.014C44.7259 384.42 45.2077 386.802 47.3429 389.732C48.8271 391.763 52.3424 394.588 55.1546 396.02C59.6463 398.299 62.8621 398.624 81.1155 398.624C100.775 398.624 102.311 398.442 108.313 395.369C112.193 393.39 115.435 390.591 116.62 388.208C118.026 385.396 118.364 381.946 117.844 375.84C117.453 371.179 115.318 354.201 113.118 338.083C110.917 321.978 107.584 298.829 105.696 286.656L102.285 264.523C109.107 254.003 109.758 251.594 109.758 244.994C109.758 238.445 109.107 235.997 106.178 231.557C104.212 228.563 100.827 225.087 98.6658 223.837L94.7209 221.558L95.437 154.065C131.761 143.168 156.655 135.695 174.205 130.435C191.755 125.162 220.164 116.634 237.35 111.478C254.536 106.31 276.5 99.7347 286.173 96.8574C295.847 93.9801 305.507 91.3502 307.655 91.0116C309.803 90.6862 313.605 91.0377 316.118 91.8058C318.631 92.587 322.38 94.553 324.45 96.1934C326.534 97.8339 328.734 100.49 329.333 102.104C330.071 104.057 329.788 106.336 328.487 108.94C327.419 111.088 324.919 113.952 322.953 115.293C320.987 116.634 314.1 119.212 307.655 121.009C301.211 122.805 288.608 126.438 279.663 129.081C270.706 131.724 246.112 138.858 224.981 144.939C203.851 151.019 173.684 159.794 157.931 164.442C142.177 169.09 128.702 173.425 127.986 174.089C127.27 174.753 126.983 175.521 127.335 175.795C127.686 176.068 133.545 178.373 140.354 180.911C147.164 183.463 165.026 190.22 180.064 195.923C195.101 201.639 218.537 210.544 232.142 215.7C245.747 220.855 273.87 231.505 294.636 239.369L332.392 253.652C349.669 252.636 356.114 251.308 361.686 249.134C366.347 247.311 376.008 243.679 383.169 241.062C390.329 238.432 418.152 228.094 445.011 218.082C471.858 208.07 497.636 198.436 502.297 196.678C506.958 194.934 513.689 192.369 517.27 191.002C520.85 189.635 556.875 176.133 597.34 161.018C637.805 145.902 673.244 132.179 676.108 130.526C678.972 128.872 682.071 125.839 682.995 123.769C684.124 121.26 684.302 118.921 683.529 116.751C682.891 114.968 680.378 112.22 677.944 110.645C675.496 109.083 648.311 99.3441 617.52 89.0066C586.729 78.6691 514.666 54.5179 457.38 35.3401C363.171 3.79383 352.286 0.434792 343.459 0.0962839C338.082 -0.112029 332.523 0.0311862 331.09 0.395733Z" fill="#12B76A"/>
<path d="M616.569 202.471C616.777 212.966 616.778 264.614 616.556 317.252C616.179 411.317 616.114 438.867 613.289 449.1C611.713 454.829 607.469 465.375 603.876 472.536C599.814 480.621 593.759 489.825 587.9 496.83C582.705 503.027 572.889 512.988 566.08 518.964C559.271 524.94 551.368 531.619 548.504 533.819C545.652 536.019 536.864 542.242 528.987 547.658C521.11 553.061 507.336 562.071 498.391 567.67C489.434 573.255 472.156 583.501 459.983 590.427C447.81 597.354 423.789 610.322 406.603 619.24C389.418 628.158 368.469 638.782 360.058 642.844C351.648 646.92 343.289 650.253 341.506 650.253C339.708 650.252 323.16 642.675 304.725 633.405C286.29 624.135 262.113 611.636 251.02 605.621C239.928 599.606 221.466 589.256 210.009 582.616C198.551 575.976 178.345 563.321 165.092 554.494C151.838 545.654 136.031 534.456 129.938 529.613C123.845 524.757 113.56 515.5 107.063 509.029C100.58 502.558 92.1172 492.586 88.2634 486.857C84.4227 481.129 79.3446 471.755 76.988 466.026C74.6315 460.298 72.6918 455.024 72.6658 454.308C72.653 453.566 78.9802 452.603 87.2996 452.069C95.3586 451.548 103.561 450.819 105.527 450.441C108.612 449.842 109.342 450.325 110.826 453.983C111.777 456.314 115.357 462.615 118.794 467.979C122.218 473.356 129.795 482.366 135.628 488.029C141.447 493.68 151.486 502.403 157.93 507.402C164.375 512.402 176.393 521.007 184.621 526.514C192.849 532.022 204.28 539.365 210.009 542.828C215.737 546.291 229.798 554.494 241.256 561.055C252.713 567.617 272.046 578.306 284.219 584.816C296.393 591.313 314.256 600.57 341.506 614.097L370.149 599.697C385.903 591.768 410.809 578.605 425.482 570.442C440.155 562.279 457.445 552.488 463.889 548.674C470.334 544.872 483.223 536.787 492.532 530.707C501.841 524.64 515.017 515.513 521.826 510.435C528.635 505.371 539.676 495.932 546.368 489.474C553.49 482.613 561.588 473.147 565.858 466.677C569.881 460.583 574.647 451.222 579.763 436.081L580.531 196.821L616.192 183.385L616.569 202.471ZM132.555 207.887C133.272 207.888 144.546 212.015 157.618 217.053C170.676 222.092 182.837 226.844 184.634 227.612C186.418 228.367 201.064 233.887 217.182 239.85C233.287 245.826 253.506 253.43 262.099 256.75C270.692 260.07 289.141 266.918 303.111 271.957C323.317 279.274 330.479 281.278 338.264 281.812C346.024 282.333 350.021 281.877 357.794 279.547C363.158 277.932 382.492 271.058 400.758 264.288C419.011 257.505 460.322 242.038 492.546 229.917C524.763 217.798 551.41 208.229 551.784 208.642C552.135 209.072 552.397 252.284 552.344 304.675C552.266 392.322 552.084 426.291 549.935 433.477C548.646 437.774 546.264 443.931 544.636 447.147C543.009 450.376 537.84 457.693 533.14 463.422C528.453 469.15 521.201 476.806 517.035 480.438C512.869 484.058 504.784 490.555 499.055 494.878C493.327 499.2 484.239 505.657 478.875 509.251C473.498 512.831 462.666 519.744 454.789 524.6C446.912 529.47 432.265 537.972 422.24 543.506C412.215 549.052 390.681 560.391 374.393 568.711C358.093 577.043 343.602 583.852 342.17 583.852C340.737 583.852 325.348 576.627 307.994 567.787C290.626 558.947 268.219 547.125 258.194 541.526C248.169 535.915 233.808 527.504 226.296 522.83C218.77 518.156 207.938 511.125 202.21 507.219C196.481 503.327 187.419 496.843 182.094 492.846C176.756 488.836 167.747 481.168 162.057 475.791C156.368 470.427 149.195 462.511 146.109 458.215C143.037 453.918 139.091 446.887 134.196 434.779L133.74 415.55L135.628 407.737C137.698 404.521 142.671 394.392 143.83 390.811C145.002 387.231 145.94 381.372 145.914 377.792C145.888 374.21 143.4 355.176 140.406 335.478C137.412 315.793 134.404 296.745 133.74 293.165C133.063 289.584 132.529 282.267 132.555 276.89C132.568 271.526 133.453 264.196 134.534 260.616C135.614 257.036 136.487 249.862 136.474 244.668C136.461 238.9 135.446 232.078 133.871 227.092C132.452 222.626 131.279 216.467 131.266 213.421C131.253 210.387 131.839 207.887 132.555 207.887ZM350.932 304.506C347.551 304.583 344.654 306.911 343.833 310.165L343.76 310.483L314.602 451.278L292.013 360.624C291.225 357.459 288.48 355.168 285.226 354.954C282.074 354.747 279.141 356.537 277.875 359.408L277.758 359.689L259.073 407.131H189.001C184.859 407.131 181.501 410.489 181.501 414.631C181.501 418.773 184.859 422.131 189.001 422.131H264.179C267.26 422.13 270.029 420.246 271.158 417.38L283.126 386.993L308 486.817C308.846 490.213 311.929 492.572 315.427 492.502C318.926 492.431 321.911 489.951 322.621 486.524L351.867 345.302L373.792 431.147C374.586 434.257 377.272 436.517 380.471 436.768C383.671 437.019 386.676 435.206 387.946 432.259L405.062 392.523L417.227 416.816C418.499 419.354 421.095 420.958 423.933 420.958H495.001C499.142 420.958 502.5 417.6 502.501 413.458C502.501 409.316 499.143 405.958 495.001 405.958H428.565L411.258 371.394C409.951 368.786 407.251 367.172 404.336 367.256C401.511 367.337 398.981 368.998 397.776 371.537L397.664 371.786L382.878 406.109L358.371 310.148C357.507 306.765 354.423 304.426 350.932 304.506Z" fill="#12B76A"/>
</svg>
