<svg width="1818" height="617" viewBox="0 0 1818 617" fill="none" xmlns="http://www.w3.org/2000/svg">
<path fill-rule="evenodd" clip-rule="evenodd" d="M313.665 0.374905C312.308 0.732599 302.033 4.00119 290.846 7.65214C279.659 11.3154 236.637 25.6602 195.255 39.5486C153.874 53.4494 95.0394 73.2089 64.512 83.4833C33.9846 93.7455 7.47824 103.083 5.61576 104.217C3.75328 105.364 1.58244 107.955 0.79305 109.99C-0.144356 112.407 -0.255364 114.738 0.484693 116.724C1.10141 118.389 3.82729 121.239 6.54083 123.052C9.25437 124.865 15.3598 127.763 20.1085 129.49C24.8572 131.229 37.0682 135.953 47.244 139.987L65.7454 147.326C66.3375 208.121 66.2018 210.551 64.2036 211.082C63.0195 211.39 60.5157 212.771 58.6532 214.165C56.7907 215.547 54.1512 218.902 52.7944 221.615C51.3636 224.489 50.3276 229.003 50.3399 232.408C50.3399 235.627 51.0676 239.66 51.968 241.35C52.8561 243.052 54.3855 245.679 55.3476 247.209C56.8894 249.626 56.8277 251.908 54.9406 265.093C53.7442 273.407 50.5496 296.028 47.836 315.356C45.1348 334.683 42.779 353.937 42.6063 358.119C42.3719 364.187 42.8283 366.444 44.8511 369.22C46.2572 371.144 49.5875 373.82 52.2517 375.177C56.507 377.335 59.5536 377.644 76.8463 377.644C95.4711 377.644 96.9265 377.471 102.613 374.56C106.288 372.685 109.359 370.034 110.482 367.776C111.814 365.112 112.135 361.844 111.641 356.059C111.271 351.643 109.248 335.559 107.164 320.289C105.079 305.032 101.922 283.102 100.133 271.569L96.9018 250.601C103.365 240.635 103.982 238.353 103.982 232.099C103.982 225.895 103.365 223.576 100.59 219.37C98.7273 216.533 95.5204 213.24 93.4729 212.056L89.7356 209.897L90.414 145.957C124.827 135.633 148.41 128.553 165.036 123.57C181.663 118.574 208.576 110.495 224.858 105.611C241.139 100.714 261.947 94.4855 271.111 91.7597C280.276 89.0338 289.428 86.5423 291.463 86.2216C293.498 85.9132 297.1 86.2462 299.48 86.974C301.861 87.714 305.413 89.5765 307.374 91.1306C309.348 92.6847 311.432 95.2009 312 96.7304C312.698 98.5805 312.431 100.739 311.198 103.206C310.186 105.241 307.818 107.955 305.956 109.225C304.093 110.495 297.568 112.938 291.463 114.64C285.357 116.342 273.418 119.783 264.944 122.287C256.458 124.791 233.159 131.55 213.14 137.31C193.122 143.07 164.543 151.384 149.619 155.787C134.694 160.19 121.928 164.298 121.25 164.927C120.571 165.556 120.3 166.283 120.633 166.542C120.966 166.801 126.516 168.985 132.967 171.39C139.418 173.807 156.341 180.209 170.587 185.611C184.833 191.026 207.035 199.463 219.924 204.347C232.813 209.231 259.455 219.321 279.129 226.771L314.898 240.302C331.266 239.339 337.371 238.081 342.65 236.022C347.066 234.295 356.218 230.853 363.002 228.374C369.786 225.883 396.144 216.089 421.59 206.604C447.023 197.119 471.445 187.992 475.861 186.327C480.276 184.674 486.653 182.244 490.045 180.949C493.437 179.654 527.566 166.863 565.901 152.543C604.236 138.223 637.81 125.223 640.523 123.656C643.237 122.09 646.172 119.216 647.048 117.255C648.117 114.878 648.286 112.662 647.554 110.606C646.95 108.917 644.569 106.314 642.262 104.822C639.944 103.342 614.19 94.1155 585.019 84.3221C555.848 74.5287 487.578 51.6485 433.307 33.4801C344.056 3.59416 333.745 0.411908 325.382 0.0912163C320.288 -0.106132 315.021 0.0295449 313.665 0.374905Z" fill="#12B76A"/>
<path d="M584.119 191.814C584.316 201.756 584.316 250.686 584.106 300.554C583.748 389.669 583.687 415.769 581.01 425.464C579.518 430.891 575.496 440.881 572.092 447.665C568.244 455.325 562.509 464.045 556.958 470.681C552.037 476.552 542.736 485.988 536.286 491.649C529.835 497.311 522.348 503.638 519.634 505.723C516.933 507.807 508.608 513.703 501.146 518.834C493.684 523.953 480.633 532.488 472.16 537.792C463.673 543.083 447.306 552.791 435.774 559.353C424.241 565.914 401.485 578.199 385.204 586.647C368.922 595.096 349.076 605.161 341.108 609.01C333.14 612.87 325.221 616.028 323.532 616.028C321.829 616.028 306.153 608.849 288.688 600.067C271.223 591.285 248.317 579.445 237.808 573.746C227.299 568.048 209.81 558.242 198.956 551.951C188.101 545.661 168.958 533.672 156.402 525.31C143.846 516.935 128.873 506.327 123.1 501.738C117.328 497.138 107.583 488.368 101.428 482.238C95.2857 476.108 87.2686 466.66 83.6176 461.232C79.979 455.805 75.1684 446.925 72.936 441.498C70.7038 436.072 68.8665 431.077 68.8412 430.397C68.8289 429.694 74.823 428.781 82.7045 428.275C90.3395 427.782 98.1106 427.091 99.9731 426.733C102.896 426.166 103.587 426.623 104.993 430.089C105.893 432.297 109.285 438.266 112.541 443.348C115.785 448.442 122.964 456.977 128.49 462.343C134.003 467.696 143.513 475.96 149.619 480.696C155.724 485.433 167.109 493.585 174.904 498.803C182.699 504.02 193.528 510.977 198.956 514.258C204.383 517.539 217.704 525.31 228.558 531.526C239.412 537.743 257.729 547.869 269.261 554.036C280.794 560.191 297.716 568.96 323.532 581.775L350.667 568.134C365.592 560.622 389.188 548.152 403.088 540.419C416.989 532.685 433.369 523.41 439.474 519.796C445.58 516.194 457.791 508.535 466.61 502.774C475.429 497.027 487.911 488.381 494.362 483.57C500.813 478.772 511.272 469.83 517.612 463.712C524.359 457.212 532.031 448.244 536.077 442.114C539.888 436.342 544.402 427.473 549.249 413.129L549.977 186.462L583.76 173.732L584.119 191.814ZM125.579 196.945C126.257 196.945 136.939 200.856 149.323 205.629C161.693 210.402 173.212 214.903 174.915 215.632C176.605 216.347 190.482 221.577 205.751 227.227C221.009 232.888 240.164 240.091 248.305 243.236C256.446 246.382 273.923 252.869 287.158 257.643C306.3 264.574 313.085 266.474 320.46 266.979C327.812 267.473 331.599 267.042 338.962 264.834C344.044 263.304 362.361 256.792 379.665 250.378C396.958 243.952 436.094 229.299 466.622 217.815C497.146 206.333 522.393 197.268 522.743 197.661C523.076 198.068 523.322 239.006 523.273 288.639C523.199 371.672 523.027 403.853 520.992 410.662C519.771 414.732 517.513 420.567 515.971 423.613C514.429 426.672 509.533 433.604 505.081 439.031C500.64 444.458 493.77 451.711 489.823 455.152C485.876 458.581 478.216 464.736 472.789 468.831C467.362 472.926 458.753 479.044 453.671 482.448C448.577 485.84 438.314 492.39 430.852 496.99C423.39 501.603 409.514 509.657 400.017 514.899C390.52 520.154 370.118 530.897 354.688 538.778C339.245 546.672 325.517 553.123 324.161 553.123C322.802 553.122 308.224 546.277 291.784 537.902C275.33 529.527 254.102 518.328 244.605 513.024C235.108 507.708 221.502 499.741 214.385 495.312C207.256 490.884 196.994 484.224 191.567 480.523C186.14 476.835 177.556 470.693 172.511 466.906C167.454 463.107 158.919 455.843 153.529 450.749C148.139 445.667 141.342 438.168 138.418 434.098C135.508 430.027 131.771 423.366 127.133 411.896L126.702 393.678L128.49 386.277C130.451 383.231 135.162 373.634 136.26 370.242C137.37 366.85 138.258 361.3 138.234 357.908C138.209 354.516 135.853 336.483 133.016 317.821C130.179 299.172 127.331 281.128 126.702 277.735C126.06 274.343 125.554 267.411 125.579 262.317C125.591 257.236 126.43 250.291 127.454 246.899C128.477 243.507 129.304 236.711 129.291 231.79C129.279 226.326 128.317 219.863 126.825 215.139C125.48 210.908 124.37 205.074 124.358 202.188C124.346 199.314 124.9 196.946 125.579 196.945ZM332.462 288.479C329.259 288.552 326.515 290.757 325.737 293.84L325.667 294.142L298.043 427.526L276.644 341.644C275.897 338.645 273.297 336.474 270.214 336.271C267.228 336.076 264.45 337.771 263.249 340.491L263.139 340.758L245.437 385.702H179.053C175.129 385.702 171.948 388.884 171.948 392.808C171.948 396.732 175.129 399.913 179.053 399.913H250.275C253.194 399.913 255.816 398.127 256.886 395.411L268.223 366.624L291.789 461.194C292.59 464.411 295.511 466.647 298.826 466.581C302.14 466.515 304.969 464.164 305.641 460.918L333.347 327.127L354.119 408.455C354.871 411.401 357.415 413.542 360.447 413.78C363.478 414.018 366.325 412.3 367.528 409.508L383.743 371.863L395.268 394.878C396.472 397.283 398.932 398.802 401.622 398.802H468.948C472.872 398.802 476.053 395.62 476.053 391.696C476.053 387.772 472.872 384.591 468.948 384.591H406.009L389.613 351.847C388.375 349.376 385.817 347.848 383.055 347.927C380.379 348.004 377.981 349.577 376.84 351.982L376.734 352.218L362.727 384.733L339.509 293.824C338.691 290.619 335.769 288.403 332.462 288.479Z" fill="#12B76A"/>
<path d="M790.517 289.014V97.8839H839.127V289.014H790.517ZM955.687 294.18C908.003 294.18 878.069 272.457 876.082 236.96L875.95 234.576H922.308L922.441 235.768C923.765 247.556 936.878 256.033 956.481 256.033C975.422 256.033 987.873 247.424 987.873 235.238V235.106C987.873 224.377 979.396 219.344 957.011 214.973L937.275 211.132C896.877 203.317 879.393 184.243 879.393 154.441V154.309C879.526 116.825 911.315 92.7182 955.289 92.7182C1003.24 92.7182 1029.33 116.957 1032.24 150.733L1032.38 152.322H987.343L987.078 150.733C985.091 138.812 973.17 130.865 955.554 130.865C938.07 130.865 927.739 138.68 927.739 150.071V150.203C927.739 161.064 936.481 167.025 957.143 171.131L976.879 174.972C1017.54 182.919 1036.09 199.211 1036.09 230.072V230.205C1036.09 269.279 1006.02 294.18 955.687 294.18ZM1072.91 289.014V97.8839H1128.27L1174.5 227.556H1177.02L1223.11 97.8839H1278.34V289.014H1235.69V167.289H1232.91L1189.47 289.014H1161.78L1118.34 167.289H1115.69V289.014H1072.91ZM1323.51 289.014V97.8839H1454.51V136.958H1372.12V175.104H1449.61V210.867H1372.12V249.94H1454.51V289.014H1323.51Z" fill="white"/>
<path d="M776.625 447.014V379.374H785.062V447.014H776.625ZM801.281 447.014V396.483H809.438V404.077H810.188C812.719 398.733 817.453 395.592 824.906 395.592C836.25 395.592 842.578 402.295 842.578 414.295V447.014H834.422V416.264C834.422 407.17 830.672 402.811 822.609 402.811C814.547 402.811 809.438 408.249 809.438 417.108V447.014H801.281ZM875.297 447.389C864.891 447.389 860.531 443.545 860.531 433.889V403.233H852.562V396.483H860.531V383.405H868.969V396.483H880.031V403.233H868.969V431.827C868.969 437.78 871.031 440.17 876.281 440.17C877.734 440.17 878.531 440.124 880.031 439.983V446.92C878.438 447.202 876.891 447.389 875.297 447.389ZM912.094 447.905C897.656 447.905 888.938 437.78 888.938 421.936V421.889C888.938 406.28 897.844 395.592 911.578 395.592C925.312 395.592 933.656 405.811 933.656 420.905V424.092H897.281C897.516 434.545 903.281 440.639 912.281 440.639C919.125 440.639 923.344 437.405 924.703 434.358L924.891 433.936H933.047L932.953 434.311C931.219 441.155 924 447.905 912.094 447.905ZM911.531 402.858C904.031 402.858 898.312 407.967 897.422 417.577H925.359C924.516 407.592 918.984 402.858 911.531 402.858ZM967.125 464.827C954.938 464.827 947.156 459.342 945.891 451.045L945.984 450.999H954.422L954.469 451.045C955.359 454.889 959.859 457.608 967.125 457.608C976.172 457.608 981.562 453.342 981.562 445.889V435.67H980.812C977.625 441.249 971.906 444.389 964.969 444.389C951.891 444.389 943.781 434.264 943.781 420.108V420.014C943.781 405.858 951.938 395.592 965.156 395.592C972.281 395.592 977.812 399.108 980.906 404.827H981.469V396.483H989.625V446.311C989.625 457.608 980.906 464.827 967.125 464.827ZM966.75 437.17C976.125 437.17 981.75 430.139 981.75 420.108V420.014C981.75 409.983 976.078 402.811 966.75 402.811C957.375 402.811 952.125 409.983 952.125 420.014V420.108C952.125 430.139 957.375 437.17 966.75 437.17ZM1004.81 447.014V396.483H1012.97V403.983H1013.72C1015.64 398.686 1020.38 395.592 1027.22 395.592C1028.77 395.592 1030.5 395.78 1031.3 395.92V403.842C1029.61 403.561 1028.06 403.374 1026.28 403.374C1018.5 403.374 1012.97 408.295 1012.97 415.702V447.014H1004.81ZM1055.25 447.905C1045.64 447.905 1038.38 442.092 1038.38 432.905V432.811C1038.38 423.811 1045.03 418.608 1056.8 417.905L1071.28 417.014V412.42C1071.28 406.186 1067.48 402.811 1059.94 402.811C1053.89 402.811 1049.91 405.061 1048.59 408.999L1048.55 409.139H1040.39L1040.44 408.858C1041.75 400.936 1049.44 395.592 1060.22 395.592C1072.55 395.592 1079.44 401.92 1079.44 412.42V447.014H1071.28V439.561H1070.53C1067.34 444.952 1062.05 447.905 1055.25 447.905ZM1046.72 432.717C1046.72 437.827 1051.08 440.827 1056.94 440.827C1065.23 440.827 1071.28 435.389 1071.28 428.17V423.577L1057.78 424.42C1050.09 424.889 1046.72 427.608 1046.72 432.624V432.717ZM1112.3 447.389C1101.89 447.389 1097.53 443.545 1097.53 433.889V403.233H1089.56V396.483H1097.53V383.405H1105.97V396.483H1117.03V403.233H1105.97V431.827C1105.97 437.78 1108.03 440.17 1113.28 440.17C1114.73 440.17 1115.53 440.124 1117.03 439.983V446.92C1115.44 447.202 1113.89 447.389 1112.3 447.389ZM1149.09 447.905C1134.66 447.905 1125.94 437.78 1125.94 421.936V421.889C1125.94 406.28 1134.84 395.592 1148.58 395.592C1162.31 395.592 1170.66 405.811 1170.66 420.905V424.092H1134.28C1134.52 434.545 1140.28 440.639 1149.28 440.639C1156.12 440.639 1160.34 437.405 1161.7 434.358L1161.89 433.936H1170.05L1169.95 434.311C1168.22 441.155 1161 447.905 1149.09 447.905ZM1148.53 402.858C1141.03 402.858 1135.31 407.967 1134.42 417.577H1162.36C1161.52 407.592 1155.98 402.858 1148.53 402.858ZM1201.97 447.905C1189.17 447.905 1180.78 437.545 1180.78 421.795V421.702C1180.78 405.858 1189.12 395.592 1201.97 395.592C1208.91 395.592 1214.95 399.061 1217.72 404.452H1218.47V376.42H1226.62V447.014H1218.47V438.952H1217.72C1214.62 444.577 1209 447.905 1201.97 447.905ZM1203.84 440.686C1213.03 440.686 1218.66 433.467 1218.66 421.795V421.702C1218.66 410.03 1213.03 402.811 1203.84 402.811C1194.61 402.811 1189.12 409.936 1189.12 421.702V421.795C1189.12 433.561 1194.61 440.686 1203.84 440.686ZM1292.48 448.608C1277.67 448.608 1268.11 440.827 1267.12 429.811L1267.08 429.295H1275.52L1275.56 429.811C1276.17 436.561 1283.2 440.827 1292.95 440.827C1302.14 440.827 1308.84 436.092 1308.84 429.202V429.155C1308.84 423.53 1304.95 419.686 1295.67 417.624L1288.17 415.983C1274.62 412.983 1268.77 406.749 1268.77 396.952V396.905C1268.81 385.702 1278.61 377.78 1292.58 377.78C1306.08 377.78 1315.5 385.749 1316.2 395.827L1316.25 396.483H1307.81L1307.72 395.874C1306.78 389.92 1301.16 385.514 1292.34 385.561C1283.91 385.608 1277.39 389.592 1277.39 396.67V396.717C1277.39 402.108 1281.09 405.764 1290.28 407.78L1297.78 409.467C1311.89 412.608 1317.47 418.28 1317.47 428.03V428.077C1317.47 440.733 1307.58 448.608 1292.48 448.608ZM1334.81 464.733C1333.73 464.733 1332.33 464.639 1331.2 464.452V457.749C1332.19 457.936 1333.45 457.983 1334.58 457.983C1339.22 457.983 1342.03 455.874 1343.86 450.061L1344.8 447.061L1326.09 396.483H1334.81L1348.69 438.061H1349.44L1363.27 396.483H1371.84L1352.11 450.108C1347.94 461.452 1343.77 464.733 1334.81 464.733ZM1398.56 447.905C1387.31 447.905 1379.58 442.467 1378.64 434.124H1386.98C1388.34 438.342 1392.38 441.108 1398.84 441.108C1405.64 441.108 1410.47 437.874 1410.47 433.28V433.186C1410.47 429.764 1407.89 427.374 1401.66 425.874L1393.83 423.999C1384.36 421.749 1380.09 417.624 1380.09 410.358V410.311C1380.09 401.92 1388.16 395.592 1398.89 395.592C1409.48 395.592 1416.84 400.889 1417.97 409.139H1409.95C1408.88 405.155 1404.94 402.389 1398.84 402.389C1392.84 402.389 1388.44 405.483 1388.44 409.936V410.03C1388.44 413.452 1390.97 415.608 1396.92 417.061L1404.7 418.936C1414.22 421.233 1418.81 425.358 1418.81 432.577V432.67C1418.81 441.67 1410.05 447.905 1398.56 447.905ZM1448.95 447.389C1438.55 447.389 1434.19 443.545 1434.19 433.889V403.233H1426.22V396.483H1434.19V383.405H1442.62V396.483H1453.69V403.233H1442.62V431.827C1442.62 437.78 1444.69 440.17 1449.94 440.17C1451.39 440.17 1452.19 440.124 1453.69 439.983V446.92C1452.09 447.202 1450.55 447.389 1448.95 447.389ZM1485.75 447.905C1471.31 447.905 1462.59 437.78 1462.59 421.936V421.889C1462.59 406.28 1471.5 395.592 1485.23 395.592C1498.97 395.592 1507.31 405.811 1507.31 420.905V424.092H1470.94C1471.17 434.545 1476.94 440.639 1485.94 440.639C1492.78 440.639 1497 437.405 1498.36 434.358L1498.55 433.936H1506.7L1506.61 434.311C1504.88 441.155 1497.66 447.905 1485.75 447.905ZM1485.19 402.858C1477.69 402.858 1471.97 407.967 1471.08 417.577H1499.02C1498.17 407.592 1492.64 402.858 1485.19 402.858ZM1519.97 447.014V396.483H1528.12V404.17H1528.88C1531.12 398.733 1535.91 395.592 1542.52 395.592C1549.36 395.592 1554.14 399.202 1556.48 404.452H1557.23C1559.95 399.108 1565.72 395.592 1572.7 395.592C1583.02 395.592 1588.78 401.499 1588.78 412.092V447.014H1580.62V413.967C1580.62 406.514 1577.2 402.811 1570.08 402.811C1563.05 402.811 1558.41 408.108 1558.41 414.53V447.014H1550.25V412.702C1550.25 406.702 1546.12 402.811 1539.75 402.811C1533.14 402.811 1528.12 408.577 1528.12 415.702V447.014H1519.97ZM776.625 562.014V494.374H786.422L809.578 550.811H810.328L833.484 494.374H843.281V562.014H835.406V510.358H834.891L813.516 562.014H806.391L785.016 510.358H784.5V562.014H776.625ZM880.125 562.905C865.688 562.905 856.969 552.78 856.969 536.936V536.889C856.969 521.28 865.875 510.592 879.609 510.592C893.344 510.592 901.688 520.811 901.688 535.905V539.092H865.312C865.547 549.545 871.312 555.639 880.312 555.639C887.156 555.639 891.375 552.405 892.734 549.358L892.922 548.936H901.078L900.984 549.311C899.25 556.155 892.031 562.905 880.125 562.905ZM879.562 517.858C872.062 517.858 866.344 522.967 865.453 532.577H893.391C892.547 522.592 887.016 517.858 879.562 517.858ZM933 562.905C920.203 562.905 911.812 552.545 911.812 536.795V536.702C911.812 520.858 920.156 510.592 933 510.592C939.938 510.592 945.984 514.061 948.75 519.452H949.5V491.42H957.656V562.014H949.5V553.952H948.75C945.656 559.577 940.031 562.905 933 562.905ZM934.875 555.686C944.062 555.686 949.688 548.467 949.688 536.795V536.702C949.688 525.03 944.062 517.811 934.875 517.811C925.641 517.811 920.156 524.936 920.156 536.702V536.795C920.156 548.561 925.641 555.686 934.875 555.686ZM977.625 501.733C974.531 501.733 972 499.202 972 496.108C972 493.014 974.531 490.483 977.625 490.483C980.719 490.483 983.25 493.014 983.25 496.108C983.25 499.202 980.719 501.733 977.625 501.733ZM973.5 562.014V511.483H981.656V562.014H973.5ZM1017.7 562.905C1003.55 562.905 994.5 552.639 994.5 536.608V536.514C994.5 520.811 1003.5 510.592 1017.66 510.592C1029.94 510.592 1037.3 517.67 1038.8 526.67L1038.84 526.952H1030.73L1030.69 526.811C1029.42 521.842 1024.92 517.811 1017.66 517.811C1008.56 517.811 1002.84 525.124 1002.84 536.514V536.608C1002.84 548.233 1008.66 555.686 1017.66 555.686C1024.45 555.686 1028.77 552.686 1030.64 547.061L1030.73 546.78L1038.8 546.733L1038.7 547.249C1036.64 556.389 1029.84 562.905 1017.7 562.905ZM1064.62 562.905C1055.02 562.905 1047.75 557.092 1047.75 547.905V547.811C1047.75 538.811 1054.41 533.608 1066.17 532.905L1080.66 532.014V527.42C1080.66 521.186 1076.86 517.811 1069.31 517.811C1063.27 517.811 1059.28 520.061 1057.97 523.999L1057.92 524.139H1049.77L1049.81 523.858C1051.12 515.936 1058.81 510.592 1069.59 510.592C1081.92 510.592 1088.81 516.92 1088.81 527.42V562.014H1080.66V554.561H1079.91C1076.72 559.952 1071.42 562.905 1064.62 562.905ZM1056.09 547.717C1056.09 552.827 1060.45 555.827 1066.31 555.827C1074.61 555.827 1080.66 550.389 1080.66 543.17V538.577L1067.16 539.42C1059.47 539.889 1056.09 542.608 1056.09 547.624V547.717ZM1104.19 562.014V491.42H1112.34V562.014H1104.19ZM1156.03 562.014V494.374H1197.94V501.967H1164.47V523.67H1196.2V531.17H1164.47V554.42H1197.94V562.014H1156.03ZM1230.84 562.905C1218.05 562.905 1209.66 552.545 1209.66 536.795V536.702C1209.66 520.858 1218 510.592 1230.84 510.592C1237.78 510.592 1243.83 514.061 1246.59 519.452H1247.34V491.42H1255.5V562.014H1247.34V553.952H1246.59C1243.5 559.577 1237.88 562.905 1230.84 562.905ZM1232.72 555.686C1241.91 555.686 1247.53 548.467 1247.53 536.795V536.702C1247.53 525.03 1241.91 517.811 1232.72 517.811C1223.48 517.811 1218 524.936 1218 536.702V536.795C1218 548.561 1223.48 555.686 1232.72 555.686ZM1288.08 562.905C1276.59 562.905 1270.69 556.155 1270.69 544.202V511.483H1278.84V542.233C1278.84 551.327 1282.12 555.686 1290.19 555.686C1299.09 555.686 1303.83 550.249 1303.83 541.389V511.483H1311.98V562.014H1303.83V554.467H1303.08C1300.59 559.858 1295.48 562.905 1288.08 562.905ZM1347.89 562.905C1333.73 562.905 1324.69 552.639 1324.69 536.608V536.514C1324.69 520.811 1333.69 510.592 1347.84 510.592C1360.12 510.592 1367.48 517.67 1368.98 526.67L1369.03 526.952H1360.92L1360.88 526.811C1359.61 521.842 1355.11 517.811 1347.84 517.811C1338.75 517.811 1333.03 525.124 1333.03 536.514V536.608C1333.03 548.233 1338.84 555.686 1347.84 555.686C1354.64 555.686 1358.95 552.686 1360.83 547.061L1360.92 546.78L1368.98 546.733L1368.89 547.249C1366.83 556.389 1360.03 562.905 1347.89 562.905ZM1394.81 562.905C1385.2 562.905 1377.94 557.092 1377.94 547.905V547.811C1377.94 538.811 1384.59 533.608 1396.36 532.905L1410.84 532.014V527.42C1410.84 521.186 1407.05 517.811 1399.5 517.811C1393.45 517.811 1389.47 520.061 1388.16 523.999L1388.11 524.139H1379.95L1380 523.858C1381.31 515.936 1389 510.592 1399.78 510.592C1412.11 510.592 1419 516.92 1419 527.42V562.014H1410.84V554.561H1410.09C1406.91 559.952 1401.61 562.905 1394.81 562.905ZM1386.28 547.717C1386.28 552.827 1390.64 555.827 1396.5 555.827C1404.8 555.827 1410.84 550.389 1410.84 543.17V538.577L1397.34 539.42C1389.66 539.889 1386.28 542.608 1386.28 547.624V547.717ZM1451.86 562.389C1441.45 562.389 1437.09 558.545 1437.09 548.889V518.233H1429.12V511.483H1437.09V498.405H1445.53V511.483H1456.59V518.233H1445.53V546.827C1445.53 552.78 1447.59 555.17 1452.84 555.17C1454.3 555.17 1455.09 555.124 1456.59 554.983V561.92C1455 562.202 1453.45 562.389 1451.86 562.389ZM1473.09 501.733C1470 501.733 1467.47 499.202 1467.47 496.108C1467.47 493.014 1470 490.483 1473.09 490.483C1476.19 490.483 1478.72 493.014 1478.72 496.108C1478.72 499.202 1476.19 501.733 1473.09 501.733ZM1468.97 562.014V511.483H1477.12V562.014H1468.97ZM1513.27 562.905C1498.88 562.905 1489.97 552.967 1489.97 536.795V536.702C1489.97 520.483 1498.88 510.592 1513.27 510.592C1527.66 510.592 1536.56 520.483 1536.56 536.702V536.795C1536.56 552.967 1527.66 562.905 1513.27 562.905ZM1513.27 555.686C1522.83 555.686 1528.22 548.702 1528.22 536.795V536.702C1528.22 524.749 1522.83 517.811 1513.27 517.811C1503.7 517.811 1498.31 524.749 1498.31 536.702V536.795C1498.31 548.702 1503.7 555.686 1513.27 555.686ZM1549.22 562.014V511.483H1557.38V519.077H1558.12C1560.66 513.733 1565.39 510.592 1572.84 510.592C1584.19 510.592 1590.52 517.295 1590.52 529.295V562.014H1582.36V531.264C1582.36 522.17 1578.61 517.811 1570.55 517.811C1562.48 517.811 1557.38 523.249 1557.38 532.108V562.014H1549.22Z" fill="#E0E0E0"/>
</svg>
